Coordinates
version=1
nRows=5
nColumns=46
inDegrees=yes

Units are S.I. units (second, meters, Newtons, ...)
Angles are in degrees.

endheader
time	pelvis_tilt	pelvis_list	pelvis_rotation	pelvis_tx	pelvis_ty	pelvis_tz	bb_angle	bb_tx	bb_ty	bb_tz	hip_flexion_r	hip_adduction_r	hip_rotation_r	knee_angle_r	knee_angle_r_beta	ankle_angle_r	subtalar_angle_r	mtp_angle_r	crank_angle_r	hip_flexion_l	hip_adduction_l	hip_rotation_l	knee_angle_l	knee_angle_l_beta	ankle_angle_l	subtalar_angle_l	mtp_angle_l	crank_angle_l	lumbar_extension	lumbar_bending	lumbar_rotation	arm_flex_r	arm_add_r	arm_rot_r	elbow_flex_r	pro_sup_r	wrist_flex_r	wrist_dev_r	arm_flex_l	arm_add_l	arm_rot_l	elbow_flex_l	pro_sup_l	wrist_flex_l	wrist_dev_l
      7.50000000	    -35.37005924	      3.56505124	     -7.16733528	      0.35023924	      1.11460232	     -0.23000972	      0.00000000	      0.50000000	      0.00000000	      0.25000000	     57.02825342	     -2.76111741	      1.23991410	     32.44113062	      0.56620454	    -13.23349234	     -4.44098457	      0.00000000	      0.00000000	     57.95406304	     -5.17956538	     -3.92779021	     75.59875953	      1.31944726	    -27.77958541	    -15.20205164	      0.00000000	      0.00000000	    -56.98907581	     -2.29525214	     -6.51370675	     56.98881643	    -12.08657860	     27.10630539	     94.54195451	     53.21501772	      0.00000000	      0.00000000	     35.57869429	    -28.81264543	     -0.36004690	    108.34606457	     51.97784466	      0.00000000	      0.00000000
      7.50500000	    -35.65198486	      4.11019430	     -6.48951509	      0.35060063	      1.11124190	     -0.22942636	      0.00000000	      0.50000000	      0.00000000	      0.25000000	     55.73373419	     -3.56818852	      1.06931064	     29.72499783	      0.51879908	    -14.88469140	     -4.20765284	      0.00000000	      0.00000000	     59.86197344	     -4.93099689	     -4.05673033	     78.65645488	      1.37281412	    -25.72310811	    -13.64275900	      0.00000000	      0.00000000	    -56.76833296	     -2.96162891	     -4.73371349	     53.67890532	    -14.95587502	     23.90721650	     99.49253327	     53.64132720	      0.00000000	      0.00000000	     38.75841381	    -27.49714910	      4.18532738	    106.67108599	     52.20140921	      0.00000000	      0.00000000
      7.51000000	    -35.88137709	      4.92984607	     -5.77550219	      0.35086656	      1.10783336	     -0.22942068	      0.00000000	      0.50000000	      0.00000000	      0.25000000	     54.65077692	     -4.73163448	      0.82595569	     27.36785013	      0.47765909	    -16.48955592	     -3.52379329	      0.00000000	      0.00000000	     61.71084787	     -4.33808482	     -4.40997850	     81.52760555	      1.42292515	    -24.14169333	    -12.91200072	      0.00000000	      0.00000000	    -56.42096351	     -3.32189004	     -5.45121471	     52.92427720	    -15.29158294	     23.52659133	    100.15385669	     53.69681670	      0.00000000	      0.00000000	     38.89985015	    -27.91945002	      4.79723097	    106.95863238	     52.30996789	      0.00000000	      0.00000000
      7.51500000	    -36.10150447	      5.67998866	     -5.05821291	      0.35133362	      1.10439594	     -0.22912240	      0.00000000	      0.50000000	      0.00000000	      0.25000000	     53.55101525	     -5.80230678	      0.55390311	     25.16192634	      0.43915846	    -18.14407159	     -3.06211423	      0.00000000	      0.00000000	     63.55541820	     -3.80084274	     -4.68001990	     84.34468751	      1.47209250	    -22.47609915	    -12.00094385	      0.00000000	      0.00000000	    -56.12313237	     -3.72244888	     -5.91994092	     51.90470576	    -15.88119366	     22.78952891	    101.27111873	     53.78383922	      0.00000000	      0.00000000	     39.15028156	    -28.34756747	      5.83461540	    107.35855006	     52.47670391	      0.00000000	      0.00000000
      7.52000000	    -36.35723374	      6.57244992	     -4.35777511	      0.35167214	      1.10097141	     -0.22870462	      0.00000000	      0.50000000	      0.00000000	      0.25000000	     52.52115927	     -7.00575608	      0.19785362	     22.94600179	      0.40048328	    -19.88761150	     -2.42894555	      0.00000000	      0.00000000	     65.42635993	     -3.24422038	     -5.12007867	     86.98583984	      1.51818931	    -21.02874247	    -11.21516062	      0.00000000	      0.00000000	    -55.77641148	     -4.30081329	     -6.38788944	     50.68802852	    -16.71468607	     21.93324567	    102.47619811	     53.87558999	      0.00000000	      0.00000000	     39.66800920	    -28.68725219	      7.21332360	    107.58743879	     52.64758764	      0.00000000	      0.00000000
